<svg version="1" xmlns="http://www.w3.org/2000/svg" width="666.667" height="666.667" viewBox="0 0 500.000000 500.000000"><path d="M226.5.6c-1.6.2-6.6.9-11 1.5-36.4 4.8-72.9 18.6-104 39.4C95.7 52 86 60 73 73c-38 38-61.4 84.2-70.7 139.5C.9 221.2.5 228.9.5 250s.4 28.8 1.8 37.5c6.5 38.4 19 70.8 39.2 101C52 404.3 60 414 73 427c37.8 37.9 83.9 61.2 139 70.6 14.7 2.5 53.3 3 69 1 89-11.7 162.5-66.6 198.4-148.1 8.8-19.8 13.7-36.6 17.8-60.1 3.1-17.7 3.3-60.8.5-77.9-6.5-38.4-19-70.8-39.2-101C448 95.7 440 86 427 73c-37.8-37.9-83.8-61.2-139-70.6C278.9.9 234.1-.5 226.5.6zm-120 163.8c6 2.5 6 2.2 6.5 47.4l.5 41.3 44.5-43.2c24.5-23.7 45.9-44 47.5-45 4.7-3 9.1-2.5 13.1 1.5 2.8 2.8 3.4 4.2 3.4 7.5 0 5.2.1 5.1-34.4 37.6-15.2 14.3-27.6 26.2-27.6 26.5 0 .3 14.2 18.9 31.7 41.4 29.7 38.4 31.6 41.2 32.1 45.6.4 4.3.1 5.1-3 8.5-2.7 2.9-4.3 3.8-7.9 4.2-2.6.3-5.5 0-6.6-.6-1.2-.6-15.9-18.8-32.7-40.5-16.9-21.8-31.1-39.8-31.7-40.1-.5-.4-7.2 5.3-14.9 12.6l-14 13.2v23.4c0 20.1-.2 23.9-1.7 26.3-2.2 3.8-5.7 5.5-11 5.4-3.6-.1-5.1-.7-7.6-3.3l-3.2-3.1v-80.4c0-79 0-80.4 2-82.6 2.2-2.5 7-4.9 9.8-5 1 0 3.3.6 5.2 1.4zm150.7 43.5c2 1.6 5.7 11.1 17.8 45.6 8.5 23.9 15.7 43.2 16.1 42.8.3-.5 5.9-14.8 12.3-31.8 13.2-34.8 14.2-36.5 22-36.5 2.7 0 5.2.7 6.5 1.7 1.8 1.5 18.5 41.3 25.7 61.3 1 2.7 2 5 2.3 5 .4 0 6.2-16.1 13-35.8 16.3-46.8 17.9-50.9 20.4-52.7 1.2-.8 4.3-1.5 6.9-1.5 3.8 0 5.4.6 7.8 2.7 5.8 5.3 6 4.5-15.3 64.8-10.7 30.2-20.1 56.3-20.8 57.8-1.6 3.6-5.7 5.7-10.8 5.7-7.6 0-8.4-1.2-23.1-40-7.4-19.2-13.7-34.7-14.1-34.3-.3.5-5.7 15.2-11.9 32.8-6.1 17.6-11.9 33.5-12.7 35.3-3.9 8.2-17.3 8.2-20.8-.1-.7-1.8-9.9-27.2-20.4-56.4-21-58.6-21.3-59.7-16.2-65.2 2.5-2.7 3.6-3.1 7.9-3.1 3.4 0 5.7.6 7.4 1.9z"/></svg>