<svg version="1" xmlns="http://www.w3.org/2000/svg" width="666.667" height="666.667" viewBox="0 0 500.000000 500.000000"><path d="M230.8.5c-.2.2-3.7.6-7.8 1-6.2.6-21 3.2-34 6-8.9 2-26.7 8-36 12.2-3 1.4-7.3 3.2-9.5 4.1-2.2.8-4.5 1.9-5.2 2.4-.6.5-3.5 2.1-6.5 3.6-7.4 3.8-18.2 10.4-18.6 11.4-.2.4-.8.8-1.3.8-.9 0-14.8 9.8-17.5 12.4-.7.6-2.4 2-4 3.1-4.3 3.1-26.6 25.3-32 32-2.7 3.3-5.2 6.2-5.5 6.5-.5.5-12.8 18.2-15.6 22.6-.7 1-2.5 4.1-3.9 6.9-1.5 2.7-3 5.1-3.5 5.3-.5.2-.9.8-.9 1.3s-2 5.1-4.5 10.1c-8.2 17.2-16.3 40.7-18.9 55.3-.3 1.6-.8 4.1-1.1 5.5-.3 1.4-.8 4.3-1.1 6.5-.3 2.2-.7 4.6-.9 5.3-2.6 7.8-2.6 62.6 0 70.4.2.7.6 3.1.9 5.3.3 2.2 1.4 8.3 2.6 13.5 1.2 5.2 2.3 10.4 2.6 11.4 1.4 7.1 10.7 31.4 16.4 43.1 7.1 14.4 14.7 27.7 16.2 28.3.4.2.8.8.8 1.4 0 4.2 41 50.8 44.7 50.8.7 0 1.3.4 1.3.9 0 1.1 12.9 11 23 17.8 7.1 4.7 25.6 15.7 27.2 16.1.5.1 3.6 1.5 7 3.1 7.8 3.7 26.8 11.1 26.8 10.5 0-.3.9 0 2.1.6 1.1.6 2.8 1.3 3.7 1.5.9.2 4.2 1.1 7.4 1.9 3.1.8 6.7 1.7 8 2 1.2.2 3 .7 3.8 1 .8.3 3.1.7 5 1 1.9.3 4.6.8 6 1 12.1 2.1 20.2 2.8 37 3.1 22.5.4 34.7-.5 52-4 1.4-.2 3.6-.7 5-.9 3.8-.7 6.1-1.3 11-2.6 2.5-.7 5-1.3 5.5-1.4 1.5-.3 11.7-3.6 14-4.6 1.1-.4 4.5-1.7 7.5-2.9 3-1.1 6.9-2.6 8.5-3.2 1.7-.7 3.2-1.3 3.5-1.4.3 0 1.4-.6 2.5-1.2s6.7-3.5 12.5-6.5c15.3-8 32.4-19.5 44.4-29.8 5.1-4.3 17.8-16.4 20.5-19.4 1.4-1.6 3.5-3.8 4.6-5 3.9-4 14.1-17.2 18.5-23.6 2.4-3.6 4.6-6.7 5-7 .4-.3 1-1.2 1.3-2 .4-.8 2.1-3.8 3.8-6.5 1.6-2.8 3.5-6.2 4-7.8.6-1.5 1.5-2.7 2-2.7s.9-.8.9-1.7c0-.9.6-2.4 1.3-3.2.7-.9 2.6-4.5 4.1-8.1 1.5-3.6 3.4-7.9 4.1-9.5 1.8-4.1 6.6-17.6 7-19.7.2-.9.9-2.6 1.5-3.7.6-1.2.9-2.1.6-2.1-.3 0 .1-2.1.9-4.7 1.6-5.5 4.4-18.2 5.1-23.3.2-1.9.7-4.6.9-6 2.7-15 2.7-53.7 0-71-1.4-8.8-4.8-24.6-6-28.1-.8-2.2-1.2-3.9-1-3.9.6 0-5.8-18.6-9.5-27.5-7.9-19.1-21-41.7-33.2-57.4-2.8-3.4-5.7-7.3-6.6-8.4-3.3-4.2-27.8-28.3-31.7-31.2-2.2-1.7-5.3-4.2-7-5.7-1.6-1.6-3.5-2.8-4.2-2.8-.6 0-1.3-.4-1.5-.9-.7-1.8-20.1-14.1-29.8-18.8-3-1.5-5.8-3.1-6.1-3.6-.3-.5-1-.9-1.5-1-.5 0-3.6-1.3-6.9-2.7-6.3-2.8-9.3-4.1-11-4.6-.5-.2-5.5-1.9-11-3.9-14.2-5-32-9.4-45.5-11-3-.4-6.4-1-7.5-1.2-2.2-.6-46.2-1.3-46.7-.8z"/></svg>